<?xml version="1.0" encoding="UTF-8"?>
<svg version="1.1" viewBox="0 0 1216 2000" width="304" height="499" xmlns="http://www.w3.org/2000/svg">
<path transform="translate(547,12)" d="m0 0 6 2 16 12 13 10 26 22 15 13 10 9 11 9 10 9 11 9 12 11 11 9 10 9 11 9 10 9 11 9 10 9 11 9 15 13 11 9 15 13 11 9 10 9 11 9 10 9 11 9 30 26 13 11 15 13 13 11 15 13 70 60 15 13 14 12 15 13 11 9 11 10 11 9 10 9 11 9 10 9 11 9 10 9 11 9 12 11 10 8 13 12 3 4 1 9 2 59 2 47 2 73 2 53 2 75 2 53 2 80 2 57 2 82 2 56 2 84 2 52v41l-11 14-11 12-9 11-13 15-12 14-9 11-9 10-9 11-11 12-8 10-12 14-8 9-9 11-11 12-8 10-26 30-9 11-10 11-9 11-11 12-9 11-13 15-12 14-9 10-9 11-26 30-11 13-10 11-8 10-9 10-9 11-9 10-9 11-10 11-9 11-10 11-9 11-10 11-9 11-26 30-11 13-9 10-9 11-12 14-9 10-9 11-7 7-7 8-13 13-8 6-7 3-10-5-16-12-17-14-11-9-11-10-11-9-13-12-11-9-14-13-8-7-10-9-11-9-17-16-11-9-14-13-8-7-11-10-11-9-7-7-8-7-11-10-11-9-7-7-8-7-11-10-11-9-8-8-8-7-12-11-8-7-20-18-13-12-8-7-10-9-13-12-14-12-13-12-20-18-11-9-7-7-8-7-10-9-11-9-17-16-11-9-15-14-20-18-8-7-10-9-26-24-8-7-7-7-8-7-6-7-3-62-2-68-2-37-2-59-2-35-3-73-1-15-2-56-2-35-2-58-2-35-2-61-2-34-2-58-2-34-1-31v-40l1-13 9-13 11-14 13-16 12-14 8-10 9-10 8-10 12-14 11-13 9-11 9-10 9-11 10-11 9-11 24-28 7-9h2l2-4 11-13 9-11 9-10 9-11 13-15 8-10 12-14 8-10 9-10 8-10 12-14 11-13 7-8 12-14 9-11 10-11 9-11 24-28 9-11 9-10 9-11 13-15 9-11 10-11 8-10 24-28 7-8 24-28 13-14 7-8 11-12 6-7 8-7z" fill="#3C0C57"/>
<path transform="translate(795,458)" d="m0 0 5 1 8 10 12 13 9 11 11 12 7 8 9 10 9 11 10 11 9 11 13 15 14 17 5 7 1 9 5 111 7 122 4 72 10 195 4 88 2 49v8l-6 11-9 16-24 38-14 22-14 23-14 22-12 19-25 40-14 22-11 17-12 19-2 3-6-2-28-14-19-10-116-58-19-10-44-22-19-10-47-24-23-12-24-12-19-10-38-19-19-10-32-16-1-1-1-11-2-52-4-83-6-116-4-88-8-162-2-44-1-15 4-4 22-12 23-11 21-10 17-9 46-22 19-10 23-11 31-15 19-10 78-39 25-12 15-7 38-19 23-11 22-11 19-10 35-17z" fill="#D9D2E8"/>
<path transform="translate(316,1312)" d="m0 0 5 1 41 21 28 14 19 10 26 13 19 10 20 10 22 12 38 19 19 10 40 20 19 10 16 8 20 11 38 19 19 10 26 13 20 9 11 6 9 6-10 36-14 45-10 32-9 27-9 31-9 28-18 58-8 26-17 58-13 43-1 2-4-2-14-12-2-1v-2l-4-2-14-12-12-11-11-9-26-24-10-9-8-7-13-12-8-7-11-10-11-9-15-14-8-7-10-9-11-9-10-10-8-7-10-9-8-7-14-12-10-9-14-12-9-8-11-9-11-11-11-9-16-15-8-7-10-9-8-7-14-12-16-15-14-12-12-11-8-7-9-9-11-9-15-14-10-9-13-11-12-11-14-12-8-7-10-9-12-11-10-9-6-5-3-4 1-4 14-8 15-10 20-12 19-12 13-8 20-12 11-7 19-12 22-13 19-12 18-11 17-10z" fill="#A992CE"/>
<path transform="translate(104,598)" d="m0 0 7 1 10 7 22 13 21 14 22 14 10 7 19 12 17 11 15 10 11 7 6 5 1 8 5 109 3 67 4 74 4 86 6 134 5 95-3 3-6 4-8 5-45 27-19 12-16 10-26 16-16 10-28 17-21 13-15 9-4 1-5-115-4-99-5-110-2-40-6-149-3-73-7-142v-13l4-6 9-11 14-15 9-11 9-10z" fill="#A992CE"/>
<path transform="translate(1132,581)" d="m0 0h5l1 3 5 155 3 115 5 135 2 47 5 159 2 69v65l-4-1-27-14-21-11-23-11-27-14-16-8-31-16-16-10-1-1-2-56-3-55-4-82-8-146-6-136-8-147v-16l5-2 116-16 31-4z" fill="#D9D1E8"/>
<path transform="translate(553,84)" d="m0 0 4 4 11 18 15 23 11 18 10 15 24 38 15 24 18 27 10 16 13 20 12 19 17 26 11 17 13 20 23 34 8 12-1 5-36 19-28 13-19 10-35 17-47 24-62 31-19 9-19 10-29 14-86 43-28 13-27 13h-3l2-5 8-19 10-24 11-27 13-33 13-32 20-50 11-28 7-17 12-29 11-28 13-33 20-50 14-34 8-20 8-21 14-34 13-33 11-25z" fill="#D9D2E8"/>
<path transform="translate(980,1288)" d="m0 0 5 2 26 14 17 8 19 10 17 9 62 31 17 9 1 4-7 8-8 10-24 28-7 8-2 3h-2l-2 4-10 11-9 11-7 7-9 11-12 14-9 11-12 14-10 11-18 22-5 5-9 11-12 14-8 9-9 11-11 12-9 11-11 12-9 11-11 12-7 8-13 16-12 13-11 14-9 10-9 11-12 14-11 12-8 10-9 10-9 11-11 12-7 8-9 10-1 2h-2l-2 4-10 11-9 11-15 16-2-2 7-25 10-36 14-48 17-53 14-46 11-35 12-36 13-38 6-10 7-10 16-26 11-18 14-22 13-21 7-11 13-21 9-14 21-33 16-26 12-20 10-15z" fill="#D9D1E8"/>
<path transform="translate(465,168)" d="m0 0h2l-2 9-11 27-8 21-11 26-11 28-14 35-14 37-5 12-12 30-8 19-6 15-17 41-8 20-11 28-8 19-13 34-12 30-13 32-7 18-3 1-18-11-30-20-24-15-43-28-15-10-7-6 1-4 5-5 8-11 10-11 1-2h2l2-4 13-16 9-11 8-9 9-11 12-14 14-17 12-14 9-10 8-10 13-15 9-11 11-13 12-14 11-13 8-10 11-13 10-13h2l2-4 10-11 9-11 12-14 11-13 11-14 9-10 8-10 13-16 9-10 7-8 12-13 1-2h2v-2z" fill="#D9D2E8"/>
<path transform="translate(660,163)" d="m0 0 5 2 15 13 8 7 11 10 14 11 10 9 8 7 16 13 8 7 26 22 11 9 16 14 20 18 11 9 11 10 2 1v2l4 2 11 10 11 9 10 9 11 9 15 13 14 12 11 9 14 12 11 9 13 11 11 9 13 11 11 9 13 12 11 9 12 11 11 9 13 11 16 15 10 9v2l-12 3-58 8-71 11-8 1-5-5-10-11-8-10-24-28-13-15-9-11-7-7-9-11-9-10-9-11-13-14-9-11-9-13-10-16-9-13-10-15-12-19-12-18-13-20-10-15-11-17-10-16-11-16-11-17-12-19-14-23-9-14z" fill="#D8D1E8"/>
<path transform="translate(465,168)" d="m0 0h2l-2 9-11 27-8 21-11 26-11 28-14 35-14 37-5 12-12 30-8 19-6 15-17 41-14 35-1-4 6-16 7-18 5-12 4-8 6-16 5-12 3-13 7-12 7-16 5-12 12-34 7-18 4-10 1-6h2l2-8h2v-6h2l3-10 6-16 10-24 5-14 4-10 1-4h2l1-7 2-2 2-7h2l1-8-3 3h-2l-2 4-11 12-9 12-2 3h-2v2h-2l-2 5-3 5-5 5-6 7-1 3h-2v2h-2v3l-5 5-3 4h-2l-2 4-4 4-1 3-2 1-1 3-4 1v3l-7 6-10 13-5 5-8 9h-2l-2 4-8 10-11 14h-2v3h-2l-2 4-10 13-12 15-6 5-1 3-5 5h-2l-2 4-10 12h-2l-2 4-6 8h-2l-2 5-5 5-8 10h-2l-1 4h-2l-2 4-10 12-1 3-4 4-1 2h-2l-2 4-5 6h-2l-2 4-4 5h-2l-1 4-8 10-10 10-1 3-5 5h-2l-2 4-2 3h-2l-2 4-12 13-6 8h-2l-2 5-5 7h-2l2 7 9 7 11 7 10 7 17 11 20 13 21 13 2 3-5-2-38-24-15-10-17-11-15-10-7-6 1-4 5-5 8-11 10-11 1-2h2l2-4 13-16 9-11 8-9 9-11 12-14 14-17 12-14 9-10 8-10 13-15 9-11 11-13 12-14 11-13 8-10 11-13 10-13h2l2-4 10-11 9-11 12-14 11-13 11-14 9-10 8-10 13-16 9-10 7-8 12-13 1-2h2v-2z" fill="#A992CE"/>
<path transform="translate(698,201)" d="m0 0 7 2 2 2 8 5v2l4 2 6 7-1 5-4-1-7-3 2 6 6 11 6 10 2 6v2l-4-1v-3l-4-2-3-3v-2l-4-1-4-8-4-5-3-9-3-14-2-3z" fill="#FEFEFE"/>
<path transform="translate(1016,470)" d="m0 0 4 1 22 18 5 5 5 4 4 4v6l-5-1-21-15-9-2-4-5-1-7z" fill="#FEFEFE"/>
<path transform="translate(534,127)" d="m0 0 1 3-14 36-6 16-6 13-5 14-14 34-11 28-7 16-6 16-10 25-11 28-13 31-1-3 20-50 12-31 12-29 20-50 11-27 6-16 12-29z" fill="#A992CE"/>
<path transform="translate(936,542)" d="m0 0 6 1 11 5 9 1 18-1 5 2v3l-9 3-20 3-7 1-7-7-3-2-4-8z" fill="#FDFDFD"/>
<path transform="translate(782,1662)" d="m0 0 1 4-7 23-5 17-15 47-10 36-9 34-7 23-1 5 5-2-2 4-7 6-1-2 7-25 10-36 14-48 17-53z" fill="#A992CE"/>
<path transform="translate(763,314)" d="m0 0 5 3 4 5v2h2l10 13 6 12-2 5-5-3-7-10-9-15-3-7z" fill="#FEFEFE"/>
<path transform="translate(871,464)" d="m0 0 5 3 2 3v3l4 1 8 7 5 6 5 5 2 3v5h-4l-6-7-3-3-4-5-3-3-5-6-2-1-4-7z" fill="#FDFDFD"/>
<path transform="translate(1134,583)" d="m0 0 2 2v34l-2-4-2-7-2-13-4-4v-5l2-2z" fill="#FEFEFE"/>
<path transform="translate(805,289)" d="m0 0 4 2 9 7 7 6v2h2v2l4 2-3 3-5-3-6-4v-2h-2v-2l-4-2v-2l-4-2-4-5z" fill="#FDFDFD"/>
<path transform="translate(595,150)" d="m0 0 4 4 10 16 14 22 13 21 7 11-1 2-18-27-13-22-11-17-5-8z" fill="#A992CE"/>
<path transform="translate(484,272)" d="m0 0h4l2 5v10l-4 4-3-1-2-9z" fill="#FEFEFE"/>
<path transform="translate(850,439)" d="m0 0 5 2 7 7 5 7v3l-7-2-9-11z" fill="#FEFEFE"/>
<path transform="translate(671,181)" d="m0 0h2l5 9 7 11 9 14 11 18-1 2-10-15-13-21-10-16z" fill="#A992CE"/>
<path transform="translate(748,391)" d="m0 0 5 5 8 12-4 1-6-5-3-7z" fill="#FEFEFE"/>
<path transform="translate(940,552)" d="m0 0 4 2 5 5 12-2h15v1l-24 4-5-1-7-8z" fill="#C0B1DA"/>
<path transform="translate(1024,474)" d="m0 0 4 1 13 12 11 9 3 3v2l-3-1-5-5-5-4v-2l-4-2-10-9z" fill="#C4B6DD"/>
<path transform="translate(873,473)" d="m0 0 6 4 4 5v2l4 2 3 4v2l4 2 2 2-1 4-11-13-11-12z" fill="#C4B6DD"/>
<path transform="translate(660,163)" d="m0 0 5 2 9 8h-3l-4-2 4 7-1 3-9-14z" fill="#A992CE"/>
<path transform="translate(926,1389)" d="m0 0 4 1 1 6-2 2-4-1-1-1v-6z" fill="#FEFEFE"/>
<path transform="translate(1009,1243)" d="m0 0 4 2 1 2v6l-5-2-3-1 2-6z" fill="#FDFDFD"/>
<path transform="translate(769,333)" d="m0 0 5 3 7 11-1 4-10-15z" fill="#BFAFDA"/>
<path transform="translate(1040,488)" d="m0 0 4 1 11 10v2l-3-1-5-5-5-4v-2z" fill="#C9BDE0"/>
<path transform="translate(751,391)" d="m0 0 4 5 6 8-1 2-5-5-4-6z" fill="#C1B2DB"/>
<path transform="translate(376,531)" d="m0 0 2 1v6l-2 3h-2v-8z" fill="#FEFEFE"/>
<path transform="translate(873,473)" d="m0 0 6 4 4 5 1 4-11-11z" fill="#BEAFDA"/>
<path transform="translate(975,786)" d="m0 0h1v9h2l1 8h-2v-4h-2z" fill="#FEFEFE"/>
</svg>
